PathFileType	4	(X/Y/Z)	3_coords_data.trc
DataRate	CameraRate	NumFrames	NumMarkers	Units	OrigDataRate	OrigDataStartFrame	OrigNumFrames
30.0	30.0	9	21	m	30.0	22	64
Frame#	Time	THUMB_TIP	THUMB_IP	THUMB_MCP	THUMB_CMC	INDEX_TIP	INDEX_DIP	INDEX_PIP	INDEX_MCP	MIDDLE_TIP	MIDDLE_DIP	MIDDLE_PIP	MIDDLE_MCP	RING_TIP	RING_DIP	RING_PIP	RING_MCP	PINKY_TIP	PINKY_DIP	PINKY_PIP	PINKY_MCP	WRIST
X1	Y1	Z1	X2	Y2	Z2	X3	Y3	Z3	X4	Y4	Z4	X5	Y5	Z5	X6	Y6	Z6	X7	Y7	Z7	X8	Y8	Z8	X9	Y9	Z9	X10	Y10	Z10	X11	Y11	Z11	X12	Y12	Z12	X13	Y13	Z13	X14	Y14	Z14	X15	Y15	Z15	X16	Y16	Z16	X17	Y17	Z17	X18	Y18	Z18	X19	Y19	Z19	X20	Y20	Z20	X21	Y21	Z21
21	0.7	-0.15283500671386718	-0.07268340301513672	0.89893701171875	-0.15978199768066406	-0.06311169815063476	0.9250869750976562	-0.16581399536132813	-0.05848030090332031	0.9559130249023438	-0.1648350067138672	-0.03743519973754883	0.987010009765625	-0.15191600036621095	-0.037251399993896483	0.960875	-0.13785499572753906	-0.0318390007019043	0.947510009765625	-0.14143499755859376	-0.02942930030822754	0.9246640014648437	-0.18143600463867188	-0.03644620132446289	0.9308140258789063	-0.15588900756835938	-0.0240718994140625	0.9699199829101562	-0.14286900329589844	-0.016150800704956055	0.9581810302734375	-0.1429290008544922	-0.008532950401306152	0.9313699951171875	-0.18563400268554686	-0.01393220043182373	0.9317680053710937	-0.16323199462890625	-0.01198169994354248	0.9768109741210937	-0.14981700134277343	-0.002354830026626587	0.9671019897460937	-0.1489810028076172	0.009224630355834961	0.9433790283203125	-0.18911700439453125	0.0050257501602172855	0.9418410034179687	-0.1617449951171875	0.00039332300424575804	0.980343017578125	-0.15504100036621093	0.01129319953918457	0.971010009765625	-0.15682099914550782	0.022449899673461914	0.955166015625	-0.18963699340820311	0.020989299774169922	0.95389599609375	-0.1881369934082031	-0.016689300537109375	1.0123200073242187
22	0.7333333333333333	-0.1531439971923828	-0.07269229888916015	0.8988309936523438	-0.15990499877929687	-0.06313470077514649	0.9251129760742187	-0.1658919982910156	-0.05849359893798828	0.9559559936523437	-0.16588499450683594	-0.03734719848632812	0.9867130126953125	-0.15205999755859376	-0.0375004997253418	0.960906005859375	-0.13790199279785156	-0.0319148998260498	0.9474840087890625	-0.14155999755859375	-0.029451000213623048	0.9245960083007813	-0.1814199981689453	-0.03642300033569336	0.9307589721679688	-0.1568489990234375	-0.02374049949645996	0.9701060180664063	-0.14303700256347657	-0.016221700668334962	0.9580900268554687	-0.14305599975585936	-0.008530630111694335	0.9312349853515625	-0.18576199340820312	-0.013951299667358398	0.9317999877929688	-0.16336700439453125	-0.011862899780273438	0.976780029296875	-0.15035400390625	-0.002240400075912475	0.967208984375	-0.1489340057373047	0.009184860229492187	0.9431019897460937	-0.18910299682617188	0.0050532898902893066	0.9418839721679687	-0.16679100036621095	-0.00021474799513816802	0.9787459716796875	-0.15485899353027344	0.01107960033416748	0.9709359741210938	-0.15688499450683593	0.022280500411987304	0.9551820068359375	-0.18974000549316405	0.020984899520874022	0.9539609985351563	-0.1883509979248047	-0.016882600784301757	1.0124500122070312
23	0.7666666666666667	-0.15352299499511718	-0.0726946029663086	0.8991190185546875	-0.16017300415039062	-0.06322340011596679	0.9251439819335937	-0.16611900329589843	-0.058538101196289063	0.955968017578125	-0.16539700317382813	-0.037546600341796875	0.9868800048828125	-0.15226100158691405	-0.03727679824829101	0.961322998046875	-0.13812300109863282	-0.031919500350952146	0.9474240112304687	-0.14187800598144532	-0.02957419967651367	0.9245499877929687	-0.18222099304199219	-0.03655739974975586	0.9309420166015625	-0.156302001953125	-0.022936899185180663	0.9681740112304688	-0.14266600036621094	-0.016378000259399415	0.9582949829101562	-0.14316400146484376	-0.008576419830322266	0.9312880249023437	-0.18605299377441406	-0.014061400413513184	0.9318629760742188	-0.1628280029296875	-0.012199999809265137	0.9766719970703125	-0.1494770050048828	-0.002458990097045898	0.9668350219726562	-0.14916799926757812	0.009156550407409668	0.9431680297851562	-0.18927699279785157	0.004979209899902344	0.9419299926757813	-0.16708000183105468	-7.452529668807901e-05	0.9784169921875	-0.15488999938964843	0.011178799629211426	0.9708660278320312	-0.15795399475097657	0.022379899978637697	0.9551740112304687	-0.1897449951171875	0.020986000061035157	0.9540020141601563	-0.18804800415039064	-0.016886999130249023	1.0126099853515624
24	0.8	-0.15367100524902344	-0.0728501968383789	0.89922802734375	-0.1603280029296875	-0.06315840148925782	0.9254520263671875	-0.16618600463867186	-0.058669898986816404	0.9561320190429687	-0.16776600646972656	-0.037499298095703126	0.9871939697265625	-0.15267799377441407	-0.037545299530029295	0.9610189819335937	-0.138218994140625	-0.03193149948120117	0.947344970703125	-0.14206100463867188	-0.02965999984741211	0.924594970703125	-0.18246400451660155	-0.03661429977416992	0.9310269775390625	-0.156375	-0.02420789909362793	0.970280029296875	-0.1432949981689453	-0.01627429962158203	0.9582039794921875	-0.14363400268554688	-0.008764809608459472	0.9310399780273437	-0.18629600524902343	-0.014137100219726563	0.9320269775390625	-0.1629510040283203	-0.011541799545288086	0.9767160034179687	-0.15051800537109375	-0.002403239965438842	0.966926025390625	-0.14928500366210937	0.009048729896545411	0.9430750122070313	-0.18947300720214844	0.004860779762268066	0.9420919799804688	-0.1666999969482422	-0.00012953899800777403	0.9786300048828125	-0.1548000030517578	0.011152299880981445	0.9708519897460938	-0.15819400024414063	0.022301900863647462	0.9551859741210937	-0.18997799682617186	0.020846200942993165	0.9541279907226563	-0.18850599670410156	-0.01685919952392578	1.01272998046875
25	0.8333333333333334	-0.1535970001220703	-0.0730280990600586	0.899322998046875	-0.1605	-0.06341159820556641	0.9253980102539062	-0.1662760009765625	-0.05870399856567383	0.9561719970703125	-0.16979299926757813	-0.03775070190429688	0.9875	-0.15158799743652343	-0.03730509948730469	0.9611389770507812	-0.1384179992675781	-0.03206499862670899	0.9476069946289063	-0.1420229949951172	-0.029919000625610353	0.924958984375	-0.1820279998779297	-0.03662139892578125	0.931072998046875	-0.15654600524902343	-0.024372800827026368	0.97018701171875	-0.14358999633789063	-0.01626409912109375	0.9583400268554687	-0.14355999755859375	-0.00881758975982666	0.9312000122070313	-0.18630299377441406	-0.014199399948120117	0.9320239868164063	-0.16350599670410157	-0.012123600006103515	0.9769760131835937	-0.1506719970703125	-0.002390609979629516	0.9671510009765625	-0.1494199981689453	0.008962869644165039	0.9430960083007812	-0.1895260009765625	0.004816410064697266	0.9421090087890625	-0.16651100158691406	-0.00043325099349021906	0.97885498046875	-0.15481700134277343	0.011099599838256835	0.9706519775390625	-0.15786700439453125	0.022116899490356445	0.955072021484375	-0.19013499450683594	0.020806699752807616	0.954219970703125	-0.18850399780273439	-0.017103200912475587	1.0126199951171875
26	0.8666666666666667	-0.15392799377441407	-0.07308940124511719	0.89935400390625	-0.16061399841308593	-0.06345119857788085	0.9255130004882812	-0.16675	-0.05880550003051758	0.956281982421875	-0.16745599365234376	-0.03790039825439453	0.9868759765625	-0.15135299682617187	-0.03734099960327148	0.9612680053710938	-0.13851800537109374	-0.03209080123901367	0.9475469970703125	-0.1420959930419922	-0.029885000228881835	0.9249559936523437	-0.18255799865722655	-0.03667390060424805	0.9311099853515625	-0.15635499572753905	-0.024518299102783202	0.9703159790039062	-0.14308700561523438	-0.016395999908447267	0.9582360229492187	-0.14381500244140624	-0.008967320442199707	0.9313619995117187	-0.18635699462890626	-0.014198800086975098	0.9321170043945313	-0.1633820037841797	-0.012298500061035156	0.9769520263671875	-0.15044999694824218	-0.002562550067901611	0.9668939819335938	-0.14935600280761718	0.00887242031097412	0.9433330078125	-0.18966700744628906	0.0048000898361206055	0.9422239990234375	-0.16218299865722657	0.00017254300415515904	0.9804320068359375	-0.15457899475097656	0.011145299911499023	0.9707670288085938	-0.15798899841308595	0.02208289909362793	0.9550960083007812	-0.19030299377441406	0.020787200927734374	0.954301025390625	-0.18858999633789061	-0.0169862003326416	1.0126799926757812
27	0.9	-0.15403500366210937	-0.07322080230712891	0.899458984375	-0.16100799560546875	-0.06351470184326172	0.9256209716796875	-0.16728199768066407	-0.058719001770019534	0.9564390258789063	-0.16991000366210937	-0.03775730133056641	0.9873389892578125	-0.15349800109863282	-0.0376953010559082	0.9611519775390625	-0.13820599365234376	-0.032200000762939454	0.9479429931640625	-0.14217599487304688	-0.030023799896240235	0.9249500122070312	-0.18258099365234376	-0.036765098571777344	0.9311589965820313	-0.1575760040283203	-0.023403600692749025	0.968197021484375	-0.14360600280761718	-0.016440399169921877	0.9583359985351563	-0.14386500549316406	-0.009009079933166504	0.9313560180664062	-0.18647999572753907	-0.014293700218200684	0.9321699829101563	-0.1637550048828125	-0.011990099906921388	0.9767940063476562	-0.1508990020751953	-0.002435440063476562	0.9672680053710937	-0.149572998046875	0.008866100311279297	0.9432449951171875	-0.18966099548339843	0.004715250015258789	0.9422420043945312	-0.16738600158691405	-0.00034541499614715505	0.9789639892578125	-0.15491400146484374	0.010989899635314942	0.970906005859375	-0.15854600524902343	0.022149200439453124	0.9551950073242188	-0.19030000305175782	0.02071339988708496	0.9543070068359375	-0.18856399536132812	-0.017193700790405272	1.012780029296875
28	0.9333333333333333	-0.1541490020751953	-0.07336710357666015	0.8994329833984375	-0.16074800109863283	-0.06368280029296874	0.925718017578125	-0.1664320068359375	-0.05888069915771484	0.9564530029296875	-0.165406005859375	-0.037864700317382816	0.9875239868164063	-0.15221600341796876	-0.037619400024414065	0.9615050048828125	-0.13838600158691405	-0.03253160095214844	0.948291015625	-0.1422239990234375	-0.02998900032043457	0.924958984375	-0.1825330047607422	-0.036824798583984374	0.93118798828125	-0.15547599792480468	-0.02401989936828613	0.96964599609375	-0.14366900634765625	-0.01647209930419922	0.9584089965820313	-0.14388800048828124	-0.009066760063171387	0.9313099975585938	-0.18638699340820314	-0.014371000289916992	0.932177978515625	-0.16356500244140626	-0.012312100410461426	0.9770549926757812	-0.1499770050048828	-0.0027262599468231203	0.9671220092773437	-0.14963900756835938	0.008668560028076172	0.9430289916992187	-0.18969900512695312	0.004633520126342773	0.9422680053710938	-0.16702999877929686	-0.00031902000308036804	0.9785460205078125	-0.15525900268554688	0.010843799591064454	0.9710499877929688	-0.15821099853515624	0.021956100463867187	0.9552249755859376	-0.19024000549316405	0.020645700454711913	0.9542990112304688	-0.18842300415039062	-0.017221900939941408	1.0128800048828126
29	0.9666666666666667	-0.15406300354003907	-0.07347019958496094	0.8996669921875	-0.1607510070800781	-0.06377939987182617	0.92577001953125	-0.16625999450683593	-0.0589010009765625	0.9564130249023437	-0.16946600341796875	-0.037812000274658204	0.9876179809570312	-0.15211300659179688	-0.03757080078125	0.9615819702148437	-0.13845899963378908	-0.03238259887695313	0.9480960083007812	-0.14221699523925782	-0.03013479995727539	0.9250390014648437	-0.1825760040283203	-0.036874298095703126	0.93125	-0.15649400329589844	-0.023502300262451172	0.9693930053710937	-0.14301400756835939	-0.01674370002746582	0.958635009765625	-0.14382899475097657	-0.009161600112915039	0.9315079956054687	-0.18629899597167968	-0.014425700187683105	0.9321610107421875	-0.16344900512695312	-0.01269610023498535	0.9770360107421875	-0.15083200073242187	-0.002622329950332641	0.9675289916992188	-0.14960000610351562	0.0085966796875	0.9431119995117188	-0.18963400268554687	0.00459181022644043	0.9422990112304688	-0.16773300170898436	-0.00030413699150085407	0.9786190185546875	-0.15497599792480468	0.01098289966583252	0.9711170043945313	-0.15860899353027344	0.02197220039367676	0.955302001953125	-0.19018699645996093	0.02059779930114746	0.954406005859375	-0.18839700317382813	-0.017213600158691406	1.0130599975585937
